<?xml version="1.0" encoding="utf-8"?>
<svg xmlns="http://www.w3.org/2000/svg" height="48" width="48" viewBox="0 0 48 48">
  <g>
    <ellipse cy="24" cx="24" ry="24" rx="24" fill="#567DD0" />
    <path id="path1" transform="rotate(0,24,24) translate(8,8) scale(1,1)  " fill="#FCFCFC" d="M29.98999,13.91098L20.010986,19.108002 20.010986,29.095978 29.98999,23.973999z M2.0529785,13.074005L2.0529785,23.061005 17.906982,29.328003 17.906982,19.299988z M13.887291,8.4980021C13.952135,8.4985647,14.017948,8.5120029,14.081199,8.5397549L19.032234,10.668918C19.286236,10.776926 19.403236,11.070949 19.294235,11.324968 19.213234,11.514983 19.028234,11.627992 18.835232,11.627992 18.769232,11.627992 18.70223,11.61499 18.638231,11.586988L13.687196,9.4578257C13.433194,9.3498173 13.315193,9.0557947 13.425195,8.801775 13.506945,8.6105108 13.692759,8.496315 13.887291,8.4980021z M11.676971,7.3699951L3.2309875,11.173981 18.843994,17.376984 28.977997,12.240997 21.052979,9.098999 21.056,13.975983 21.504974,14.156006C21.796997,14.278992 21.917999,14.584991 21.774994,14.837982 21.672974,15.018982 21.463989,15.123993 21.246979,15.123993 21.158997,15.123993 21.071991,15.106995 20.987976,15.071991L10.540985,10.660004C10.248993,10.536987 10.127991,10.230988 10.270996,9.9779968 10.415985,9.7250061 10.765991,9.6239929 11.057983,9.743988L11.661987,9.9989929z M13.887291,6.0460167C13.952135,6.0466261,14.017948,6.0601878,14.081199,6.0881863L19.032234,8.2180538C19.286236,8.3260469 19.403236,8.6210279 19.294235,8.8740129 19.213234,9.0640011 19.028234,9.1769934 18.835232,9.1769934 18.769232,9.1769934 18.70223,9.1639948 18.638231,9.1359959L13.687196,7.0061288C13.433194,6.8981357 13.315193,6.6031542 13.425195,6.3501697 13.506945,6.1589317 13.692759,6.044189 13.887291,6.0460167z M13.887291,3.4530349C13.952135,3.453691,14.017948,3.46738,14.081199,3.4956336L19.032234,5.6248956C19.286236,5.7329087 19.403236,6.0269446 19.294235,6.2809758 19.213234,6.4709992 19.028234,6.5840135 18.835232,6.5840135 18.769232,6.5840135 18.70223,6.5710115 18.638231,6.5430083L13.687196,4.4137464C13.433194,4.3057332 13.315193,4.0116973 13.425195,3.7576656 13.506945,3.5663924 13.692759,3.4510658 13.887291,3.4530349z M12.838989,1.6059875L12.838989,10.496979 19.878998,13.47699 19.878998,4.473999z M11.661987,0L21.056,3.8259888 21.056,7.2469788 32,11.654999 32,25.178986 18.901978,32 0,24.359985 0,10.85498 11.661987,5.67099z" />
  </g>
</svg>